# xmcd CD database file
#
# Track frame offsets:
#	182
#	28832
#	61357
#	89657
#	124857
#	163857
#
# Disc length: 2554 seconds
#
# Revision: 0
# Processed by: cddbd v1.5.1PL0 Copyright (c) Steve Scherf et al.
# Submitted via: CDex 1.51
#
DISCID=5209f806
DTITLE=Lionel Hampton - Gerry Mulligan - Lionel Hampton Presents Gerry Mulligan
DYEAR=1990
DGENRE=Jazz
TTITLE0=Apple Core
TTITLE1=Song For Johnny Hodges
TTITLE2=Blight Of The Fumble Bee
TTITLE3=Gerry Meets Hamp
TTITLE4=Blues For Gerry
TTITLE5=Line For Lyons
EXTD=YEAR: 1990
EXTT0=
EXTT1=
EXTT2=
EXTT3=
EXTT4=
EXTT5=
PLAYORDER=
